<svg width="81" height="19" viewBox="0 0 81 19" fill="none" xmlns="http://www.w3.org/2000/svg">
<path d="M5.076 14.126C3.816 14.126 2.778 13.844 1.962 13.28C1.158 12.704 0.756 11.9 0.756 10.868C0.756 10.76 0.768 10.598 0.792 10.382H3.366C3.318 10.886 3.45 11.3 3.762 11.624C4.086 11.948 4.554 12.11 5.166 12.11C5.778 12.11 6.258 11.984 6.606 11.732C6.966 11.468 7.146 11.096 7.146 10.616C7.146 10.172 6.96 9.818 6.588 9.554C6.228 9.29 5.658 8.996 4.878 8.672C4.158 8.372 3.57 8.096 3.114 7.844C2.67 7.592 2.286 7.244 1.962 6.8C1.65 6.344 1.494 5.774 1.494 5.09C1.494 4.31 1.692 3.632 2.088 3.056C2.496 2.48 3.048 2.036 3.744 1.724C4.452 1.412 5.256 1.256 6.156 1.256C7.044 1.256 7.812 1.406 8.46 1.706C9.12 1.994 9.612 2.408 9.936 2.948C10.272 3.488 10.416 4.118 10.368 4.838H7.686L7.704 4.64C7.704 4.244 7.554 3.92 7.254 3.668C6.966 3.416 6.558 3.29 6.03 3.29C5.466 3.29 5.01 3.422 4.662 3.686C4.314 3.95 4.14 4.31 4.14 4.766C4.14 5.066 4.236 5.33 4.428 5.558C4.632 5.774 4.878 5.966 5.166 6.134C5.454 6.29 5.868 6.494 6.408 6.746C7.116 7.058 7.698 7.352 8.154 7.628C8.61 7.904 9 8.27 9.324 8.726C9.648 9.182 9.81 9.74 9.81 10.4C9.81 11.12 9.612 11.762 9.216 12.326C8.832 12.89 8.28 13.334 7.56 13.658C6.852 13.97 6.024 14.126 5.076 14.126ZM15.3423 5.468C15.7503 5.012 16.2603 4.634 16.8723 4.334C17.4963 4.022 18.1743 3.866 18.9063 3.866C19.6503 3.866 20.3043 4.028 20.8683 4.352C21.4443 4.664 21.8883 5.12 22.2003 5.72C22.5123 6.32 22.6683 7.022 22.6683 7.826C22.6683 8.198 22.6323 8.582 22.5603 8.978C22.3803 9.998 22.0203 10.904 21.4803 11.696C20.9403 12.476 20.2863 13.082 19.5183 13.514C18.7503 13.946 17.9463 14.162 17.1063 14.162C16.3743 14.162 15.7503 14.012 15.2343 13.712C14.7303 13.412 14.3463 13.034 14.0823 12.578L13.0023 18.752H10.4643L13.0563 4.028H15.5943L15.3423 5.468ZM19.9863 8.978C20.0223 8.738 20.0403 8.522 20.0403 8.33C20.0403 7.622 19.8363 7.07 19.4283 6.674C19.0203 6.278 18.4983 6.08 17.8623 6.08C17.4063 6.08 16.9563 6.2 16.5123 6.44C16.0683 6.668 15.6843 7.004 15.3603 7.448C15.0363 7.892 14.8203 8.414 14.7123 9.014C14.6643 9.326 14.6403 9.554 14.6403 9.698C14.6403 10.406 14.8443 10.958 15.2523 11.354C15.6723 11.75 16.1943 11.948 16.8183 11.948C17.2863 11.948 17.7423 11.828 18.1863 11.588C18.6303 11.348 19.0143 11.006 19.3383 10.562C19.6623 10.118 19.8783 9.59 19.9863 8.978ZM26.9295 4.028L28.2615 10.994L32.1315 4.028H34.8135L26.0475 18.716H23.3655L26.3895 13.748L24.1035 4.028H26.9295ZM45.316 4.676C45.196 5.408 44.896 6.02 44.416 6.512C43.948 6.992 43.372 7.34 42.688 7.556C43.264 7.676 43.726 7.964 44.074 8.42C44.434 8.876 44.614 9.416 44.614 10.04C44.614 10.208 44.596 10.394 44.56 10.598C44.392 11.618 43.876 12.44 43.012 13.064C42.16 13.688 41.092 14 39.808 14H34.39L36.622 1.436H41.806C42.946 1.436 43.822 1.676 44.434 2.156C45.058 2.636 45.37 3.278 45.37 4.082C45.37 4.274 45.352 4.472 45.316 4.676ZM42.688 5.054C42.7 4.982 42.706 4.874 42.706 4.73C42.706 4.31 42.568 3.986 42.292 3.758C42.016 3.53 41.614 3.416 41.086 3.416H38.8L38.224 6.656H40.528C41.116 6.656 41.602 6.518 41.986 6.242C42.37 5.954 42.604 5.558 42.688 5.054ZM42.058 10.292C42.082 10.124 42.094 10.004 42.094 9.932C42.094 9.5 41.938 9.164 41.626 8.924C41.326 8.672 40.906 8.546 40.366 8.546H37.882L37.288 12.002H39.826C40.438 12.002 40.942 11.852 41.338 11.552C41.734 11.252 41.974 10.832 42.058 10.292ZM46.2084 8.978C46.3884 7.97 46.7424 7.076 47.2704 6.296C47.8104 5.516 48.4644 4.916 49.2324 4.496C50.0004 4.076 50.8104 3.866 51.6624 3.866C52.4064 3.866 53.0304 4.016 53.5344 4.316C54.0504 4.616 54.4284 4.994 54.6684 5.45L54.9204 4.028H57.4584L55.6944 14H53.1564L53.4264 12.542C53.0304 13.01 52.5144 13.4 51.8784 13.712C51.2544 14.012 50.5704 14.162 49.8264 14.162C49.0944 14.162 48.4464 14 47.8824 13.676C47.3184 13.34 46.8804 12.872 46.5684 12.272C46.2564 11.66 46.1004 10.952 46.1004 10.148C46.1004 9.776 46.1364 9.386 46.2084 8.978ZM54.0384 9.014C54.0864 8.702 54.1104 8.474 54.1104 8.33C54.1104 7.622 53.9004 7.07 53.4804 6.674C53.0724 6.278 52.5564 6.08 51.9324 6.08C51.4644 6.08 51.0084 6.194 50.5644 6.422C50.1324 6.65 49.7544 6.986 49.4304 7.43C49.1064 7.862 48.8904 8.378 48.7824 8.978C48.7464 9.206 48.7284 9.422 48.7284 9.626C48.7284 10.346 48.9324 10.916 49.3404 11.336C49.7484 11.744 50.2644 11.948 50.8884 11.948C51.3564 11.948 51.8124 11.834 52.2564 11.606C52.7004 11.366 53.0784 11.024 53.3904 10.58C53.7144 10.136 53.9304 9.614 54.0384 9.014ZM65.4636 3.884C66.4956 3.884 67.3056 4.166 67.8936 4.73C68.4936 5.282 68.7936 6.074 68.7936 7.106C68.7936 7.49 68.7636 7.838 68.7036 8.15L67.6596 14H65.1576L66.1296 8.492C66.1656 8.276 66.1836 8.066 66.1836 7.862C66.1836 7.262 66.0216 6.806 65.6976 6.494C65.3856 6.182 64.9356 6.026 64.3476 6.026C63.6756 6.026 63.0996 6.23 62.6196 6.638C62.1516 7.034 61.8396 7.61 61.6836 8.366L60.6936 14H58.1556L59.9196 4.028H62.4576L62.2416 5.252C62.6496 4.832 63.1356 4.502 63.6996 4.262C64.2636 4.01 64.8516 3.884 65.4636 3.884ZM75.708 9.014L79.236 14H75.978L73.35 9.77L72.594 14H70.056L72.414 0.68H74.952L73.62 8.24L77.688 4.028H80.982L75.708 9.014Z" fill="#9DEDF0"/>
</svg>
